<svg width="50" height="50" viewBox="0 0 50 50" fill="none" xmlns="http://www.w3.org/2000/svg">
<g clip-path="url(#clip0_34_3234)">
<path d="M37 13H13V37H37V13Z" fill="white" fill-opacity="0.01"/>
<path d="M18.5 33.5C20.5837 32.6046 22.5461 32.1215 24.3873 32.0507C26.2285 31.9799 28.5994 32.2963 31.5 33" stroke="#16253B" stroke-width="2" stroke-linecap="round"/>
<path d="M24.5226 35C24.1392 30.28 24.2982 26.6133 24.9999 24" stroke="#16253B" stroke-width="2" stroke-linecap="round"/>
<path fill-rule="evenodd" clip-rule="evenodd" d="M25 24.588C25.795 21.579 27.1949 19.7846 29.1996 19.2047C31.2043 18.6248 33.1378 18.8906 34.9999 20.002C35.0093 22.4479 33.9476 24.2398 31.8148 25.3775C29.682 26.5152 27.4104 26.252 25 24.588Z" stroke="#16253B" stroke-width="2" stroke-linejoin="round"/>
<path fill-rule="evenodd" clip-rule="evenodd" d="M24.896 24.057C25.3127 20.4636 24.4777 17.9328 22.3911 16.4643C20.3045 14.9959 17.8882 14.668 15.1422 15.4807C14.6627 18.7954 15.3958 21.3018 17.3415 23C19.2873 24.6982 21.8054 25.0505 24.896 24.057Z" stroke="#16253B" stroke-width="2" stroke-linejoin="round"/>
</g>
<circle cx="25" cy="25" r="24" stroke="#16253B" stroke-width="2"/>
<defs>
<clipPath id="clip0_34_3234">
<rect width="24" height="24" fill="white" transform="translate(13 13)"/>
</clipPath>
</defs>
</svg>
