<svg width="25" height="25" viewBox="0 0 25 25" fill="none" xmlns="http://www.w3.org/2000/svg">
<path fill-rule="evenodd" clip-rule="evenodd" d="M12.5 0C5.59644 0 0 5.59644 0 12.5C0 19.4036 5.59644 25 12.5 25C19.4036 25 25 19.4036 25 12.5C25 5.59644 19.4036 0 12.5 0ZM9.75171 5.87361C10.4628 5.84125 10.6901 5.83333 12.5006 5.83333H12.4985C14.3097 5.83333 14.5361 5.84125 15.2472 5.87361C15.9569 5.90611 16.4416 6.01847 16.8666 6.18334C17.3055 6.35348 17.6764 6.58126 18.0472 6.95209C18.418 7.32265 18.6458 7.6946 18.8167 8.13308C18.9806 8.55697 19.0931 9.04142 19.1264 9.75115C19.1583 10.4623 19.1667 10.6895 19.1667 12.5001C19.1667 14.3106 19.1583 14.5373 19.1264 15.2484C19.0931 15.9579 18.9806 16.4425 18.8167 16.8665C18.6458 17.3048 18.418 17.6768 18.0472 18.0473C17.6768 18.4182 17.3054 18.6465 16.8671 18.8168C16.4429 18.9817 15.9579 19.094 15.2482 19.1265C14.537 19.1589 14.3105 19.1668 12.4998 19.1668C10.6894 19.1668 10.4623 19.1589 9.75115 19.1265C9.04156 19.094 8.55697 18.9817 8.1328 18.8168C7.6946 18.6465 7.32265 18.4182 6.95223 18.0473C6.58154 17.6768 6.35375 17.3048 6.18334 16.8664C6.01861 16.4425 5.90625 15.958 5.87361 15.2483C5.84139 14.5372 5.83333 14.3106 5.83333 12.5001C5.83333 10.6895 5.84167 10.4621 5.87347 9.75101C5.90542 9.04156 6.01792 8.55697 6.1832 8.13294C6.35403 7.6946 6.58181 7.32265 6.95265 6.95209C7.32321 6.5814 7.69516 6.35362 8.13363 6.18334C8.55753 6.01847 9.04198 5.90611 9.75171 5.87361Z" fill="#16253B"/>
<path fill-rule="evenodd" clip-rule="evenodd" d="M11.9024 7.03463C12.0186 7.03444 12.1435 7.0345 12.2783 7.03456L12.5005 7.03463C14.2805 7.03463 14.4915 7.04101 15.1944 7.07296C15.8444 7.10268 16.1972 7.21129 16.4322 7.30255C16.7433 7.42338 16.9651 7.56783 17.1983 7.80116C17.4317 8.0345 17.5761 8.25672 17.6972 8.56784C17.7885 8.80256 17.8972 9.15534 17.9268 9.80535C17.9587 10.5081 17.9657 10.7192 17.9657 12.4984C17.9657 14.2776 17.9587 14.4887 17.9268 15.1915C17.8971 15.8415 17.7885 16.1943 17.6972 16.429C17.5764 16.7401 17.4317 16.9617 17.1983 17.1949C16.965 17.4282 16.7435 17.5727 16.4322 17.6935C16.1975 17.7852 15.8444 17.8935 15.1944 17.9232C14.4916 17.9552 14.2805 17.9621 12.5005 17.9621C10.7203 17.9621 10.5094 17.9552 9.80657 17.9232C9.15657 17.8932 8.80379 17.7846 8.56864 17.6933C8.25753 17.5725 8.03531 17.4281 7.80197 17.1947C7.56863 16.9614 7.42419 16.7397 7.30308 16.4285C7.21182 16.1938 7.10307 15.841 7.07349 15.191C7.04155 14.4882 7.03516 14.2771 7.03516 12.4968C7.03516 10.7165 7.04155 10.5065 7.07349 9.80368C7.10321 9.15368 7.21182 8.80089 7.30308 8.56589C7.42391 8.25478 7.56863 8.03255 7.80197 7.79922C8.03531 7.56588 8.25753 7.42144 8.56864 7.30032C8.80365 7.20866 9.15657 7.10032 9.80657 7.07046C10.4216 7.04268 10.6599 7.03435 11.9024 7.03296V7.03463ZM16.0591 8.14158C15.6175 8.14158 15.2591 8.4995 15.2591 8.94131C15.2591 9.38298 15.6175 9.74132 16.0591 9.74132C16.5008 9.74132 16.8591 9.38298 16.8591 8.94131C16.8591 8.49964 16.5008 8.1413 16.0591 8.1413V8.14158ZM9.07684 12.5C9.07684 10.6093 10.6097 9.07639 12.5004 9.07631C14.3911 9.07631 15.9236 10.6092 15.9236 12.5C15.9236 14.3907 14.3912 15.9229 12.5005 15.9229C10.6098 15.9229 9.07684 14.3907 9.07684 12.5Z" fill="#16253B"/>
<path d="M12.5006 10.2778C13.7278 10.2778 14.7228 11.2727 14.7228 12.5001C14.7228 13.7273 13.7278 14.7223 12.5006 14.7223C11.2732 14.7223 10.2783 13.7273 10.2783 12.5001C10.2783 11.2727 11.2732 10.2778 12.5006 10.2778V10.2778Z" fill="#16253B"/>
</svg>
