<svg width="33" height="32" viewBox="0 0 33 32" fill="none" xmlns="http://www.w3.org/2000/svg">
<path d="M1.0996 9.13098C1.17509 7.48126 1.4334 6.41729 1.78273 5.51415L1.78743 5.50167C2.13359 4.58264 2.67589 3.7501 3.37655 3.06196L3.38638 3.05231L3.39603 3.04248C4.08474 2.34091 4.91759 1.79915 5.83581 1.4539L5.85165 1.44785C6.75273 1.09742 7.81462 0.840068 9.46571 0.764587M1.0996 9.13098C1.02023 10.8936 1 11.44 1 16.0102C1 20.5813 1.01911 21.1264 1.09955 22.8895M1.0996 9.13098V9.5756M9.46571 0.764587C11.2288 0.684151 11.775 0.665039 16.345 0.665039C20.9152 0.665039 21.4611 0.685249 23.2237 0.764604M9.46571 0.764587H9.91148M1.09955 22.8895C1.17503 24.5406 1.43238 25.6025 1.78281 26.5035L1.78886 26.5195M1.09955 22.8895L1.12659 23.0318M1.09955 22.8895V22.4438M1.0996 9.5756C1.10576 9.43434 1.11241 9.28709 1.11953 9.1305C1.20226 7.32549 1.50911 6.27086 1.80158 5.52284C2.18012 4.54595 2.65962 3.80881 3.39218 3.07321C4.08848 2.35892 4.93495 1.8085 5.87024 1.46178C6.61496 1.17293 7.66679 0.867009 9.46499 0.784587C9.62208 0.777452 9.76978 0.770786 9.91148 0.764587M1.0996 9.5756C1.03427 11.0693 1.02023 11.8933 1.02023 16.0102C1.02023 20.1256 1.03427 20.9508 1.09955 22.4438M1.0996 9.5756L1.09955 22.4438M1.78886 26.5195C2.13411 27.4376 2.67587 28.2704 3.37744 28.9592L3.38725 28.9689L3.39689 28.9786C4.08506 29.6793 4.91763 30.2217 5.83667 30.5678L5.85039 30.5729C6.75229 30.9227 7.8147 31.1802 9.46571 31.2557M1.78886 26.5195L1.76817 26.4104M1.76817 26.4104L1.12659 23.0318M1.76817 26.4104C1.49568 25.6906 1.21509 24.6861 1.12659 23.0318M1.76817 26.4104C1.77773 26.4357 1.78727 26.4606 1.79681 26.4851C2.14236 27.4167 2.68988 28.2603 3.40004 28.955C4.09461 29.6651 4.93781 30.2125 5.86908 30.5581C6.61643 30.8491 7.6695 31.1534 9.46546 31.2357C11.2779 31.3182 11.8378 31.335 16.345 31.335C20.8524 31.335 21.4128 31.3182 23.2253 31.2357C25.0233 31.1532 26.0752 30.8473 26.82 30.5586C27.7517 30.2131 28.5954 29.6654 29.2902 28.955C30.0001 28.2604 30.5475 27.4173 30.8931 26.4861C31.1841 25.7387 31.4884 24.6857 31.5706 22.8898C31.6531 21.0773 31.67 20.5162 31.67 16.0102C31.67 11.504 31.6531 10.9424 31.5706 9.13003C31.4878 7.32247 31.1791 6.26905 30.8889 5.52368C30.5095 4.54434 30.0285 3.80366 29.289 3.06419C28.551 2.32766 27.8124 1.8463 26.8322 1.46656C26.0842 1.17411 25.0301 0.867315 23.2253 0.784587C23.0682 0.777452 22.9207 0.770802 22.7791 0.764604M1.12659 23.0318C1.12408 22.9852 1.12174 22.938 1.11955 22.8903C1.11241 22.7332 1.10575 22.5855 1.09955 22.4438M22.7791 0.764604H23.2237M22.7791 0.764604L9.91148 0.764587M22.7791 0.764604C21.286 0.699325 20.4609 0.685265 16.345 0.685265C12.2295 0.685265 11.4044 0.699309 9.91148 0.764587M23.2237 0.764604C24.8737 0.840084 25.9378 1.09836 26.8411 1.44772L26.8535 1.45247C27.7725 1.79863 28.6051 2.34093 29.2932 3.04159L29.3028 3.05132L29.3126 3.06088C30.0133 3.74906 30.5556 4.58185 30.9015 5.50114L30.9073 5.51669C31.2577 6.41777 31.5152 7.47966 31.5906 9.13075M31.5906 22.8895C31.5152 24.5405 31.2577 25.6029 30.9079 26.5048L30.9028 26.5185C30.5565 27.4376 30.0143 28.2701 29.3136 28.9582L29.3037 28.9679L29.2942 28.9778C28.6054 29.6793 27.7727 30.221 26.8543 30.5663L26.8385 30.5724C25.9375 30.9229 24.8755 31.1802 23.2245 31.2557M13.6159 22.5991C14.4811 22.9574 15.4085 23.1419 16.345 23.1419C18.2366 23.1419 20.0506 22.3905 21.3881 21.0531C22.7255 19.7156 23.4769 17.9016 23.4769 16.0102C23.4769 14.1187 22.7255 12.3046 21.3881 10.9672C20.0506 9.62969 18.2366 8.87829 16.345 8.87829C15.4085 8.87829 14.4811 9.06276 13.6159 9.42118C12.7505 9.77958 11.9644 10.3049 11.3021 10.9672C10.6399 11.6294 10.1146 12.4156 9.75614 13.2809C9.39774 14.1461 9.21327 15.0736 9.21327 16.0102C9.21327 16.9467 9.39774 17.8741 9.75614 18.7393C10.1146 19.6047 10.6399 20.3908 11.3021 21.0531C11.9644 21.7153 12.7505 22.2407 13.6159 22.5991ZM11.2862 10.9513C12.628 9.60958 14.4477 8.85582 16.345 8.85582C18.2425 8.85582 20.0622 9.60958 21.404 10.9513C22.7457 12.293 23.4994 14.1127 23.4994 16.0102C23.4994 17.9075 22.7457 19.7272 21.404 21.069C20.0622 22.4107 18.2425 23.1644 16.345 23.1644C14.4477 23.1644 12.628 22.4107 11.2862 21.069C9.94455 19.7272 9.1908 17.9075 9.1908 16.0102C9.1908 14.1127 9.94455 12.293 11.2862 10.9513ZM27.5279 7.19014C27.5279 7.73322 27.3121 8.25406 26.9283 8.63808C26.5442 9.0221 26.0233 9.23784 25.4803 9.23784C24.9371 9.23784 24.4164 9.0221 24.0324 8.63808C23.6484 8.25406 23.4325 7.73322 23.4325 7.19014C23.4325 6.64705 23.6484 6.12621 24.0324 5.74221C24.4164 5.35819 24.9371 5.14245 25.4803 5.14245C26.0233 5.14245 26.5442 5.35819 26.9283 5.74221C27.3121 6.12621 27.5279 6.64705 27.5279 7.19014Z" stroke="black" stroke-width="1.3" stroke-linejoin="round"/>
</svg>
