<svg width="15" height="14" viewBox="0 0 15 14" fill="none" xmlns="http://www.w3.org/2000/svg">
<path d="M1.87573 11.9583V6.12496C1.87573 5.80278 2.1369 5.54163 2.45907 5.54163H5.37573C5.69791 5.54163 5.95907 5.80278 5.95907 6.12496V7.87496C5.95907 8.19713 6.22022 8.45829 6.5424 8.45829H8.2924C8.61457 8.45829 8.87573 8.71945 8.87573 9.04163V11.9583C8.87573 12.2805 8.61457 12.5416 8.2924 12.5416H2.45907C2.1369 12.5416 1.87573 12.2805 1.87573 11.9583Z" stroke="#202A3D" stroke-linecap="round" stroke-linejoin="round"/>
<path d="M5.95923 7.87504V2.04171C5.95923 1.71954 6.22039 1.45837 6.54256 1.45837H12.3759C12.6981 1.45837 12.9592 1.71954 12.9592 2.04171V7.87504C12.9592 8.19722 12.6981 8.45837 12.3759 8.45837H6.54256C6.22039 8.45837 5.95923 8.19722 5.95923 7.87504Z" stroke="#202A3D" stroke-linecap="round" stroke-linejoin="round"/>
</svg>
