<svg width="18" height="18" viewBox="0 0 18 18" fill="none" xmlns="http://www.w3.org/2000/svg">
<path d="M4.30548 11.0861L4.3055 11.0861L4.30313 11.083C4.15293 10.8853 4.01347 10.6761 3.88879 10.4616C3.35444 9.54218 3.07153 8.49019 3.07153 7.41968C3.07153 4.07723 5.7916 1.35718 9.13399 1.35718C12.4765 1.35718 15.1965 4.07724 15.1965 7.41968C15.1965 8.4902 14.9136 9.54218 14.3793 10.4616L14.3793 10.4616C14.2546 10.6761 14.1151 10.8853 13.9649 11.083L13.9626 11.0861L9.1686 17.5H9.09941L4.30548 11.0861ZM6.45769 7.41968C6.45769 8.89585 7.65785 10.096 9.13399 10.096C10.6102 10.096 11.8104 8.89586 11.8104 7.41968C11.8104 5.94349 10.6102 4.74333 9.13399 4.74333C7.65784 4.74333 6.45769 5.94351 6.45769 7.41968Z" stroke="white"/>
</svg>
