<svg width="65" height="63" viewBox="0 0 65 63" fill="none" xmlns="http://www.w3.org/2000/svg">
<path d="M34.296 1.1284C33.8006 1.48529 33.7247 1.55482 33.6199 1.75876C33.5548 1.8839 33.3342 2.18518 33.1282 2.43083C32.8281 2.79236 32.7449 2.91751 32.7088 3.07973C32.6835 3.19097 32.5461 3.50615 32.4087 3.77961C32.011 4.55829 31.8808 4.99398 31.7941 5.7912C31.7724 6.00904 31.7109 6.28251 31.6458 6.46791C31.5518 6.7321 31.541 6.80626 31.559 7.02411C31.5735 7.15852 31.5952 7.62202 31.6097 8.05771L31.6386 8.84566L31.8664 9.72631C32.1701 10.8897 32.3364 11.4227 32.5967 12.0623C32.716 12.3543 32.8425 12.7344 32.8823 12.9059C32.9185 13.0774 33.0269 13.3833 33.1209 13.5826C33.3451 14.06 33.4608 14.3937 33.6054 14.987C33.6669 15.2559 33.7826 15.5988 33.8549 15.7518C33.9308 15.9047 34.0573 16.2246 34.1369 16.4563C34.22 16.6927 34.3502 17.0171 34.4261 17.1747C34.5997 17.527 34.6973 17.8561 34.7732 18.3288C34.8057 18.5235 34.8889 18.9082 34.9576 19.1863C35.1492 19.9511 35.1601 20.0345 35.1962 21.1052C35.2324 22.162 35.2541 22.3706 35.3191 22.3427C35.3408 22.3335 35.3878 22.2547 35.424 22.1666C35.4746 22.0415 35.4854 21.9395 35.471 21.6614C35.4601 21.4714 35.4348 20.8317 35.4168 20.2431C35.3806 19.1075 35.3734 19.0102 35.2649 18.4633C35.2288 18.2732 35.1492 17.7541 35.0877 17.3184C34.9431 16.2755 34.8672 15.9094 34.69 15.3764C34.5852 15.0658 34.5237 14.7784 34.4695 14.3798C34.3827 13.717 34.314 13.4575 34.0682 12.9152C33.8983 12.5444 33.8838 12.4841 33.891 12.2477C33.8946 12.1041 33.8729 11.9187 33.8404 11.826C33.7934 11.6684 33.7934 11.6498 33.8621 11.5386C33.9019 11.4737 33.9561 11.4181 33.985 11.4181C34.0465 11.4181 34.2562 11.7194 34.4189 12.0484C34.4948 12.2014 34.6358 12.4378 34.7298 12.5815C34.9684 12.9337 35.0154 13.0635 35.0154 13.3694C35.0154 13.8236 35.1709 14.2871 35.5144 14.8572C35.6373 15.0612 35.7855 15.3856 35.8651 15.6174C35.9374 15.8445 36.0386 16.0994 36.082 16.1921C36.2845 16.5954 36.6749 17.527 36.7002 17.6521C36.7147 17.7263 36.7726 17.9163 36.834 18.0647C36.8919 18.2176 36.9642 18.4494 36.9931 18.5745C37.022 18.7043 37.0654 18.8526 37.0907 18.9036C37.116 18.9546 37.1739 19.14 37.2209 19.3207C37.2679 19.4969 37.3402 19.7054 37.3872 19.775C37.4993 19.9465 37.5463 20.1828 37.5463 20.5861C37.5463 20.892 37.5607 20.9615 37.6981 21.3045C37.8283 21.6243 37.8536 21.7402 37.8717 22.0554C37.8861 22.2871 37.9259 22.5189 37.9801 22.6811C38.056 22.9036 38.0669 23.0102 38.0669 23.5478C38.0705 24.1272 38.0741 24.1643 38.1573 24.2755C38.2043 24.3404 38.273 24.4053 38.3127 24.4239C38.4429 24.4748 38.3887 25.4297 38.1971 26.4169C38.1356 26.7182 38.0741 26.9824 38.056 27.0055C38.009 27.0658 37.8355 27.0055 37.8355 26.9221C37.8355 26.8897 37.7632 26.7831 37.6728 26.6857C37.5824 26.593 37.5101 26.4818 37.5101 26.4401C37.5101 26.3937 37.4703 26.2083 37.4197 26.0229C37.3691 25.8375 37.304 25.476 37.2751 25.2164C37.21 24.6417 37.192 24.5536 37.0184 24.067C36.9353 23.8259 36.8774 23.5757 36.8629 23.3949C36.834 23.0704 36.7942 22.9916 36.6026 22.8665C36.4182 22.746 36.3315 22.5838 36.2989 22.3242C36.2845 22.1991 36.2447 22.0183 36.2085 21.9163C36.176 21.8144 36.1182 21.5641 36.082 21.3601C36.0278 21.045 35.9988 20.9615 35.8795 20.8086C35.7277 20.6185 35.6554 20.6093 35.7494 20.7947C35.8578 21.0079 35.8904 21.4575 35.8687 22.3798C35.7928 25.1562 35.5903 27.0982 35.2974 27.8445C35.236 27.9974 35.1094 28.3868 35.0154 28.7066C34.8274 29.3509 34.7117 29.6568 34.549 29.9627C34.4912 30.0739 34.4153 30.3103 34.3827 30.4911C34.3466 30.6672 34.2707 30.9407 34.2128 31.089C34.1513 31.2373 34.0646 31.52 34.014 31.7147C33.967 31.9094 33.8729 32.1921 33.8079 32.3451C33.7392 32.498 33.6777 32.6973 33.6633 32.7854C33.6524 32.8734 33.5692 33.1284 33.4825 33.3509C33.3957 33.5733 33.2728 33.9673 33.2077 34.2315C33.1426 34.4957 33.0052 35.0519 32.8968 35.4737C32.7919 35.8955 32.6798 36.4146 32.6473 36.6324C32.6184 36.8503 32.5425 37.2025 32.4846 37.4204C32.4268 37.6382 32.3761 37.8885 32.3761 37.9812C32.3761 38.2037 32.4159 38.4401 32.4521 38.4401C32.5171 38.4401 32.6835 38.0878 32.8317 37.6243C32.9185 37.3555 33.0775 36.9522 33.186 36.7298C33.4716 36.1365 33.6126 35.7518 33.7789 35.1168C33.9453 34.4818 34.1188 34.0183 34.4153 33.4204C34.6684 32.9013 34.7407 32.6463 34.878 31.8352C35.001 31.0982 35.095 30.7089 35.4095 29.6568C35.7602 28.4934 35.8072 28.2431 35.847 27.3393C35.9048 26.1342 35.941 25.9024 36.1182 25.5084C36.1507 25.4389 36.1724 25.2674 36.1724 25.0635C36.1724 24.5166 36.2519 24.3497 36.5086 24.3497C36.6713 24.3497 36.6822 24.4146 36.6569 25.0681C36.6388 25.4575 36.646 25.6429 36.693 25.8607C36.7436 26.1064 36.7436 26.3057 36.7147 27.5061C36.6749 28.994 36.6496 29.3045 36.5122 29.9488C36.4652 30.1852 36.4146 30.5189 36.4002 30.6904C36.3821 31.0102 36.1218 32.4053 35.8289 33.7587C35.7385 34.1805 35.6481 34.7228 35.6265 34.9638C35.6084 35.2048 35.5578 35.4969 35.518 35.6127C35.4818 35.7286 35.3878 36.0484 35.3083 36.3312C34.6828 38.6162 34.6141 38.8387 34.296 39.5293C34.1188 39.9094 34.0031 40.359 34.0031 40.6463C34.0031 40.8456 34.0067 40.8503 34.1043 40.8225C34.2996 40.7576 34.361 40.7112 34.4153 40.5814C34.4731 40.4331 34.6864 40.2987 35.0046 40.2014C35.1564 40.155 35.2143 40.1087 35.3408 39.9186C35.424 39.7935 35.6011 39.5849 35.7313 39.4551C36.129 39.0704 36.9425 37.7587 37.2136 37.0681C37.2751 36.9105 37.4161 36.651 37.5282 36.4887C37.774 36.1272 37.9982 35.5571 38.1971 34.7831C38.3344 34.2454 38.7141 32.4285 39.0322 30.7692C39.1118 30.3613 39.2058 29.8931 39.2455 29.7263C39.3287 29.3648 39.3685 28.8827 39.448 27.1446C39.5203 25.578 39.5059 25.0125 39.354 23.9326C39.2925 23.4876 39.2202 22.797 39.1913 22.403C39.1624 22.0044 39.1082 21.5363 39.072 21.3601C39.0322 21.1794 38.9346 20.702 38.8515 20.2941C38.6164 19.1307 38.4284 18.4308 38.0452 17.2582C37.7632 16.3961 37.5499 15.8445 37.3944 15.5525C37.286 15.3486 37.1703 15.0334 37.0618 14.6579C37.0256 14.5235 36.9208 14.3381 36.7762 14.1481C36.6026 13.921 36.5231 13.768 36.4291 13.4806C36.364 13.2767 36.2013 12.8966 36.0639 12.6371C35.9302 12.3775 35.7675 11.9975 35.7024 11.7889C35.6048 11.483 35.5505 11.3764 35.4059 11.2188C35.2179 11.0195 35.1637 10.899 35.0914 10.5143C35.0661 10.3845 34.9684 10.1156 34.8744 9.91171C34.6286 9.39259 34.5924 9.29525 34.531 8.9569C34.502 8.79467 34.3719 8.4007 34.2453 8.08089C34.0031 7.46907 33.9163 7.09363 33.8079 6.21762C33.7753 5.97196 33.6994 5.61044 33.6379 5.4065C33.5295 5.07278 33.5222 5.00789 33.5295 4.53512C33.5331 3.88622 33.5909 3.14925 33.6596 2.85725C33.6886 2.7321 33.7789 2.50035 33.8585 2.33813C33.938 2.18054 34.0429 1.95343 34.0899 1.83292C34.1803 1.61044 34.3647 1.36015 34.6467 1.08668C34.784 0.952268 34.8961 0.771503 34.8636 0.739058C34.8564 0.729788 34.6033 0.905918 34.296 1.1284ZM33.6235 9.83291C33.6633 9.92098 33.7681 10.1249 33.8549 10.2964C34.0826 10.7414 34.126 10.8851 34.0682 11.0334C34.0429 11.1029 33.9706 11.1956 33.9127 11.2419C33.7428 11.3671 33.6524 11.279 33.5259 10.8711C33.374 10.3845 33.3306 10.0693 33.3849 9.83755C33.4391 9.61043 33.515 9.61043 33.6235 9.83291ZM37.9801 29.5502C37.9801 29.6104 37.9982 29.8561 38.0199 30.0971C38.0524 30.4586 38.0814 31.3671 38.0958 32.5768C38.0994 32.7066 38.0705 32.8178 38.0018 32.943C37.8861 33.1655 37.8572 33.3091 37.7813 34.009C37.7162 34.6301 37.6547 34.8248 37.4414 35.0704C37.2968 35.2373 36.9606 35.4042 36.8304 35.3717C36.74 35.3485 36.7256 34.7321 36.8051 34.4493C36.8738 34.213 36.9063 34.0693 36.9859 33.6985C37.022 33.527 37.0618 33.4343 37.0979 33.4343C37.1956 33.4343 37.2353 33.1886 37.2534 32.4517C37.2751 31.7889 37.2823 31.7147 37.3583 31.5942C37.4993 31.3671 37.521 31.2466 37.5427 30.5838C37.5643 30.06 37.5788 29.9071 37.6367 29.7773C37.6764 29.6938 37.7234 29.5826 37.7451 29.5363C37.7668 29.4806 37.821 29.4482 37.8789 29.4482C37.9584 29.4482 37.9801 29.4714 37.9801 29.5502Z" fill="#16253B"/>
<path d="M34.6632 20.0613C34.3523 20.979 34.0775 21.6372 33.8642 21.9801C33.7485 22.1702 33.5966 22.4436 33.5316 22.5827C33.3436 22.9859 33.1989 23.2177 33.0073 23.4124C32.7615 23.6626 32.7181 23.7368 32.6675 23.9732C32.6458 24.0844 32.5843 24.2281 32.5373 24.2884C32.4867 24.3533 32.3095 24.636 32.1468 24.9234C31.9805 25.2061 31.7925 25.4981 31.7274 25.5769C31.6624 25.6511 31.5322 25.8596 31.4346 26.0404C31.337 26.2165 31.2032 26.4529 31.1381 26.5595C31.0767 26.6661 30.9537 26.9025 30.867 27.0925C30.7838 27.2779 30.6103 27.6209 30.4873 27.848C30.3608 28.0798 30.2234 28.395 30.1836 28.5433C29.9848 29.2802 29.7715 30.0126 29.6666 30.3278C29.428 31.0554 29.3195 32.1169 29.3521 33.3868C29.3665 33.8318 29.3991 34.3417 29.428 34.5224C29.4533 34.6985 29.4895 34.9998 29.5039 35.1899C29.522 35.4401 29.6088 35.8202 29.8149 36.5664C29.9703 37.1366 30.1258 37.6696 30.1583 37.753C30.1909 37.8318 30.2415 38.0357 30.2668 38.198C30.3319 38.5873 30.4548 38.8515 30.7693 39.2733C30.9682 39.5375 31.0477 39.6812 31.0947 39.8619C31.1273 39.9963 31.1671 40.1076 31.1815 40.1076C31.243 40.1076 31.901 40.6406 31.9878 40.7611C32.0818 40.8909 32.0926 40.8955 32.1758 40.826C32.3421 40.687 32.3638 40.5108 32.277 40.0659C32.2336 39.848 32.183 39.5282 32.1649 39.3613C32.1468 39.1945 32.0781 38.8515 32.0131 38.5966C31.8974 38.1377 31.8974 38.1331 31.8938 37.1412C31.8901 36.5943 31.9046 35.6487 31.9191 35.0462C31.9516 33.7994 31.9371 33.753 31.7274 34.3092C31.6081 34.629 31.6081 34.629 31.6009 35.4123C31.5937 36.1817 31.5648 36.4506 31.4165 37.1319L31.3551 37.4147L31.1924 37.4471C31.0477 37.4749 31.0224 37.4656 30.9646 37.3683C30.8706 37.2107 30.7585 36.7658 30.6934 36.2837C30.6645 36.0612 30.603 35.7924 30.5633 35.6858C30.5054 35.5375 30.4873 35.3845 30.4729 34.9164C30.4476 34.1655 30.5127 33.1227 30.603 32.7379C30.6392 32.5711 30.6826 32.2188 30.697 31.95C30.7368 31.1574 30.9031 30.0311 31.1381 29.0068C31.2683 28.4274 31.3695 28.1447 31.5611 27.848C31.6479 27.709 31.7564 27.4819 31.7961 27.3428C31.8359 27.2038 31.9227 26.9813 31.9878 26.8469C32.0492 26.7125 32.1288 26.4993 32.1613 26.3695C32.23 26.1099 32.3312 25.9894 32.5337 25.9431L32.6675 25.9152V26.2212C32.6675 26.388 32.6494 26.782 32.6277 27.0972C32.5988 27.5282 32.5988 27.7368 32.6313 27.9361C32.653 28.0798 32.6819 28.1957 32.6964 28.1957C32.7615 28.191 32.8446 28.0566 32.9278 27.8249C32.9748 27.6858 33.0905 27.4355 33.1773 27.2687C33.3508 26.9396 33.3725 26.884 33.5171 26.2953C33.5713 26.0775 33.7593 25.5166 33.9401 25.0439C34.2366 24.2559 34.2655 24.1539 34.2944 23.8017C34.3197 23.519 34.3559 23.3428 34.4318 23.1528C34.703 22.4854 34.891 20.9975 34.8368 19.9686L34.8187 19.5978L34.6632 20.0613Z" fill="#16253B"/>
<path d="M18.6197 41.1677C18.4136 41.2141 18.2256 41.3114 18.099 41.4412C18.0159 41.5293 18.0159 41.5432 18.0303 42.1086C18.0484 42.8595 18.081 42.9337 18.381 42.9337C18.8077 42.9337 19.303 43.1283 19.491 43.3694C19.5742 43.476 19.6175 43.5918 19.6465 43.7772C19.6935 44.06 19.7875 44.2639 20.1165 44.7877C20.2394 44.9777 20.4093 45.2743 20.5033 45.4458C20.7166 45.8491 21.0384 46.206 21.2662 46.294C21.3963 46.345 21.4759 46.4192 21.588 46.586C21.6784 46.7158 21.8338 46.8734 21.9676 46.9661C22.0941 47.0495 22.2677 47.1793 22.3508 47.2535C22.434 47.323 22.6292 47.4667 22.7847 47.564C22.9402 47.666 23.1715 47.8236 23.3017 47.9163C23.4319 48.009 23.656 48.1341 23.8006 48.199C23.9453 48.2593 24.173 48.3891 24.3068 48.491C24.4406 48.593 24.6539 48.7089 24.784 48.7506C24.9142 48.7923 25.3444 48.9592 25.7421 49.1214C26.1398 49.2836 26.7581 49.5339 27.116 49.6776C27.474 49.8213 27.8283 49.9928 27.9078 50.0623C28.0777 50.2106 28.2043 50.4516 28.2368 50.688L28.2621 50.8641L14.4763 50.8595C0.744787 50.8549 0.397702 50.8595 0.101233 51.0032L0 51.0542L0.0940022 51.1144C0.144619 51.1515 0.437472 51.2767 0.744787 51.3925C1.0521 51.513 1.48957 51.7216 1.72096 51.856C1.95235 51.9951 2.24521 52.1388 2.37175 52.1805C2.57783 52.2407 5.96191 52.25 32.4308 52.25C58.4658 52.25 62.3018 52.2407 62.6091 52.1805C63.3539 52.0368 64.4891 51.6335 64.8543 51.3786C65.0134 51.2674 65.0206 51.2535 64.9772 51.1654C64.9483 51.1144 64.8579 51.0217 64.7711 50.9661L64.6157 50.8595H51.7699H38.9278L38.9603 50.6695C39.0651 50.0855 39.3797 49.8027 40.2836 49.4968C40.5475 49.4041 40.8223 49.3021 40.8946 49.2604C40.9669 49.2234 41.191 49.1492 41.3935 49.0982C41.7081 49.0194 41.8491 48.9499 42.4095 48.5884C42.7674 48.3612 43.1253 48.1619 43.2049 48.1434C43.3748 48.1063 43.4941 48.0322 43.7653 47.8004C43.8737 47.7077 44.2895 47.3972 44.6872 47.1052C45.0849 46.8178 45.5079 46.4933 45.6308 46.3821C45.9345 46.1086 46.3033 45.5895 46.5998 45.0148C46.7372 44.7506 46.889 44.4539 46.9396 44.3566C46.9903 44.2639 47.0517 44.1851 47.077 44.1851C47.1059 44.1851 47.1276 44.1666 47.1276 44.1388C47.1276 44.0275 47.2867 43.5687 47.3699 43.4389C47.4856 43.2628 47.7314 43.1005 48.0351 43.0032C48.1725 42.9568 48.3063 42.878 48.3641 42.8085C48.4871 42.6556 48.5521 42.3172 48.5304 41.9186C48.5051 41.5107 48.4364 41.3439 48.2412 41.2419C48.093 41.1677 47.3229 41.1631 34.1662 41.177C26.5122 41.1863 19.9212 41.1816 19.5235 41.1631C19.1258 41.1446 18.7209 41.1492 18.6197 41.1677ZM20.8613 41.5895C20.977 41.6822 21.2047 42.0762 21.2047 42.1828C21.2047 42.2709 21.2373 42.2477 21.3349 42.104C21.4578 41.9186 21.6784 41.8166 22.0254 41.7888L22.3183 41.761L22.3436 41.9881C22.3798 42.3311 22.387 42.3404 22.5895 42.5165L22.7775 42.6787L22.7883 42.9707C22.7955 43.2118 22.81 43.2581 22.8642 43.2581C22.9004 43.2581 23.0342 43.2998 23.1571 43.3508C23.4355 43.4667 23.5656 43.4667 23.6886 43.3601C23.7789 43.2859 24.032 43.2813 27.6945 43.2813C31.3642 43.2813 31.6137 43.2859 31.8306 43.3647C32.1234 43.4713 32.3838 43.4713 32.5935 43.3694C32.7417 43.2906 32.9875 43.2859 35.522 43.2674C37.0441 43.2581 38.4397 43.2628 38.6241 43.2813L38.9567 43.3137V43.4899C38.9567 43.7726 38.8771 43.8514 38.5373 43.9024C38.3059 43.9395 38.2083 43.9348 38.0709 43.8838C37.7166 43.7448 37.4816 43.8143 37.2104 44.1341C37.0079 44.3752 36.791 44.4957 36.4945 44.5374C36.2668 44.5652 36.2595 44.5652 36.2162 44.4447C36.1908 44.3752 36.1728 44.2825 36.1728 44.2361C36.1728 44.06 36.0896 43.9951 35.8582 43.9904C35.6919 43.9858 35.6015 44.0136 35.5039 44.0878C35.3304 44.2176 35.0484 44.2176 34.817 44.0878C34.5964 43.9626 34.3253 43.9858 34.2168 44.1341C34.177 44.1851 34.13 44.2315 34.112 44.2315C34.0252 44.2315 34.0866 44.3334 34.2096 44.3983C34.3216 44.4586 34.3867 44.4632 34.6181 44.4215C34.8495 44.3752 34.9471 44.3798 35.1713 44.44C35.6124 44.5559 35.9667 44.732 36.1728 44.936C36.3861 45.1492 36.8019 45.2465 37.5286 45.2512C37.9046 45.2558 38.0998 45.3021 38.3891 45.469L38.5951 45.5895V45.9696V46.3543L38.4361 46.5675C38.3457 46.6834 38.23 46.7946 38.1721 46.8132C37.9986 46.8734 37.2574 46.8456 36.8959 46.7622C36.7079 46.7205 36.4331 46.6139 36.2812 46.5304C36.133 46.4424 35.9522 46.3497 35.8799 46.3218C35.7968 46.2848 35.6449 46.1364 35.4822 45.9279C35.1351 45.4829 35.0194 45.4319 34.629 45.5478C34.3976 45.622 34.2674 45.6266 33.7902 45.6034L33.2262 45.571L33.1466 45.7332C33.0996 45.8259 33.0635 45.914 33.0635 45.9371C33.0635 45.9557 33.2804 46.1133 33.5443 46.2848C34.0107 46.5907 34.036 46.6046 34.4048 46.6463C34.7736 46.6926 35.616 46.9059 35.9739 47.0449C36.3138 47.1747 36.4801 47.4342 36.5235 47.8931L36.5452 48.1156L36.7838 48.1897C37.1092 48.2917 37.3008 48.4586 37.2863 48.6254C37.2755 48.7413 37.2393 48.7691 36.697 49.0148C36.3789 49.1585 35.9811 49.3392 35.8112 49.418C35.4099 49.5988 35.1749 49.6405 34.3578 49.6822L33.6781 49.7147V49.5756C33.6781 49.4968 33.7106 49.3809 33.7504 49.3207C33.8155 49.2141 33.8806 49.1816 34.271 49.0611C34.4048 49.0194 34.4771 48.885 34.4012 48.8201C34.2963 48.732 34.1156 48.7784 33.8372 48.9592C33.6311 49.0936 33.472 49.1585 33.2623 49.1955C32.9152 49.2558 32.3874 49.2234 32.2428 49.1307C32.1234 49.0519 31.9318 48.7645 31.6426 48.2315C31.404 47.7958 31.2702 47.6382 31.0822 47.5687C30.9014 47.5038 30.7966 47.5084 30.5833 47.5918C30.3446 47.6799 30.1964 47.8282 30.0048 48.1666C29.9035 48.3473 29.7806 48.4957 29.6685 48.5791L29.4878 48.7089L29.6468 48.8294C29.7336 48.8989 29.9795 49.0194 30.1892 49.0982C30.6266 49.2604 30.793 49.3578 30.9484 49.5432L31.0569 49.6776L30.4423 49.6915C29.5962 49.71 29.5095 49.6915 29.072 49.3995C28.6381 49.1121 28.5369 49.0658 28.1934 49.0101C27.8536 48.9545 27.6475 48.8247 27.3438 48.4678C27.1305 48.2176 27.0726 48.1712 26.9244 48.148C26.5122 48.0878 26.3315 48.0322 26.1398 47.9116C25.8904 47.7541 25.7458 47.5408 25.6879 47.2488C25.6662 47.133 25.6228 46.9847 25.5903 46.9244C25.5433 46.8271 25.518 46.8178 25.3661 46.841C25.2757 46.8549 25.1311 46.9105 25.048 46.9661C24.8708 47.0727 24.5852 47.0959 24.455 47.0125C24.3502 46.9429 23.8802 46.3589 23.8802 46.2987C23.8802 46.2709 23.9236 46.1735 23.9742 46.0762C24.0863 45.8723 24.0718 45.7796 23.9236 45.7378C23.7681 45.6961 23.6777 45.5432 23.6126 45.228C23.562 44.9684 23.5331 44.9174 23.2222 44.5374C22.622 43.805 22.7015 43.8699 22.3617 43.8375C21.9423 43.7911 21.7868 43.8514 21.5699 44.1388C21.4108 44.352 21.4 44.3752 21.4578 44.44C21.4903 44.4771 21.5446 44.5096 21.5771 44.5096C21.6458 44.5096 21.7832 44.7228 21.7832 44.8387C21.7832 44.885 21.823 44.9777 21.8664 45.0472C21.9459 45.1631 21.9821 45.177 22.3147 45.2048C22.5135 45.2234 22.6943 45.2512 22.7124 45.2651C22.7738 45.3161 22.7196 45.5756 22.6365 45.6266C22.5967 45.6544 22.5027 45.7471 22.434 45.8305C22.2894 46.0067 22.0941 46.0808 22.0471 45.9789C22.0327 45.9464 21.9459 45.863 21.8591 45.7981C21.7579 45.7193 21.6422 45.5663 21.5301 45.3531C21.3891 45.0843 21.353 44.9777 21.3313 44.746C21.3096 44.491 21.2987 44.4586 21.212 44.4354C21.0276 44.3798 20.9878 44.2917 20.9878 43.9395C20.9878 43.6475 20.9986 43.6057 21.0999 43.4528C21.2047 43.2998 21.2083 43.2813 21.1505 43.2303C21.118 43.1979 21.0059 43.1469 20.9046 43.1144C20.6516 43.0403 20.4599 42.9105 20.384 42.7668C20.3045 42.6092 20.2756 41.9696 20.337 41.7749C20.4274 41.4922 20.6443 41.418 20.8613 41.5895ZM45.8225 42.1874C46.2997 42.3079 46.5456 42.4238 46.6323 42.5721C46.701 42.6926 46.701 42.7019 46.6432 42.8178C46.5058 43.0913 45.9345 43.2164 45.2657 43.1283C44.8174 43.0681 44.3871 42.9198 44.3546 42.8178C44.3473 42.7807 44.3763 42.6185 44.4233 42.4609C44.5028 42.1967 44.5209 42.1643 44.651 42.1133C44.8354 42.0391 45.3524 42.0716 45.8225 42.1874ZM34.9218 42.1735C37.2502 42.1921 39.0688 42.1874 40.2366 42.1504C41.9792 42.0947 42.0154 42.0947 42.301 42.1921C42.7095 42.3265 43.0494 42.549 43.0892 42.7158C43.1072 42.79 43.1145 42.8595 43.1 42.8734C43.0675 42.9198 24.7587 42.9522 24.7407 42.9059C24.7298 42.8827 24.7298 42.7946 24.737 42.7112C24.7551 42.586 24.7696 42.5629 24.86 42.5629C24.9178 42.5629 25.0841 42.498 25.236 42.4238L25.5108 42.2848H26.9461C27.7343 42.2848 28.5694 42.2616 28.7972 42.2338C29.5962 42.1365 30.0843 42.1086 30.7315 42.1272C31.0894 42.1365 32.9767 42.1596 34.9218 42.1735ZM41.6972 45.3485C41.8852 45.469 41.9033 45.5107 41.8527 45.7471C41.8057 45.9696 41.6864 46.1179 41.361 46.3404C41.2236 46.4377 41.0573 46.5629 40.9994 46.6231C40.8656 46.7436 40.656 46.8271 40.4571 46.8271C40.2763 46.8271 40.2366 46.8595 40.1715 47.0681C40.1281 47.1979 40.0883 47.2442 39.9979 47.2674C39.7376 47.3415 39.4773 47.4991 39.1483 47.7865C38.6132 48.2546 38.5445 48.2871 38.0347 48.2871C37.4382 48.2871 37.2574 48.1619 37.2574 47.7541C37.2574 47.5918 37.2827 47.5779 37.7455 47.5548C38.0817 47.5362 38.2264 47.476 38.4614 47.2349C38.5445 47.1469 38.6204 47.1283 38.9494 47.1052C39.3327 47.082 39.3399 47.0774 39.6979 46.8317C39.8967 46.6973 40.11 46.5304 40.1715 46.4609C40.2329 46.3867 40.3667 46.3126 40.486 46.2755L40.6921 46.2199V45.9928C40.6921 45.6498 40.75 45.5339 40.9994 45.3809C41.2634 45.2234 41.4767 45.2141 41.6972 45.3485ZM32.6585 49.5339C32.7308 49.5849 32.7345 49.5988 32.6911 49.6498C32.6188 49.7239 31.6462 49.7008 31.6281 49.622C31.6028 49.5293 31.8053 49.4783 32.1958 49.4736C32.4416 49.4736 32.6043 49.4922 32.6585 49.5339Z" fill="#16253B"/>
<path d="M34.3713 47.4684C34.1507 47.5704 34.0712 47.6492 34.1507 47.6816C34.2592 47.728 35.4017 47.9412 35.5282 47.9412C35.6258 47.9412 35.6981 47.9041 35.7813 47.8067C35.8464 47.7326 35.8898 47.6584 35.8789 47.6445C35.8175 47.5657 35.2426 47.4174 34.9244 47.4035C34.6316 47.385 34.5267 47.3989 34.3713 47.4684Z" fill="#16253B"/>
<path d="M42.8385 56.7971C42.4878 56.8388 42.2095 56.95 41.8443 57.191C40.7994 57.8816 40.3366 59.3185 40.6584 60.8712C40.9657 62.3544 42.1263 63.1655 43.6339 62.9616C44.0967 62.8967 44.3932 62.7669 44.545 62.5583C44.6065 62.4749 44.7114 62.2339 44.7764 62.0207C44.8415 61.8121 44.9102 61.6174 44.9283 61.5896C45.0114 61.4691 44.8741 61.1678 44.7584 61.2235C44.7258 61.242 44.6354 61.3764 44.5559 61.5294C44.3209 61.9697 43.9593 62.2524 43.4966 62.359C42.8494 62.5027 42.1191 61.9975 41.8045 61.1957C41.5731 60.607 41.4755 59.6059 41.5912 59.0172C41.8407 57.7333 42.8349 57.0334 43.7713 57.483C44.1112 57.6499 44.2811 57.8538 44.4366 58.2756C44.545 58.5723 44.5884 58.6464 44.6535 58.6464C44.8054 58.6464 44.8198 58.563 44.7873 57.8075L44.7584 57.0983L44.6571 57.0659C44.4474 56.9964 43.5219 56.7971 43.3122 56.7831C43.1929 56.7739 42.9795 56.7785 42.8385 56.7971Z" fill="#16253B"/>
<path d="M24.7467 56.8808L24.4394 56.9086L24.2984 57.3953C23.7127 59.4347 23.2101 60.8715 23.0836 60.8715C22.9896 60.8715 21.8543 57.247 21.8543 56.955C21.8543 56.8947 21.7603 56.8854 21.2361 56.8854C20.5672 56.8854 20.2997 56.9364 20.2997 57.0708C20.2997 57.1914 20.419 57.3026 20.5455 57.3026C20.7877 57.3026 20.8239 57.4926 20.795 58.5355C20.7299 60.5934 20.5636 61.9469 20.3286 62.2898C20.2707 62.3733 20.1659 62.466 20.0972 62.4938C19.9887 62.5401 19.9706 62.5679 19.9815 62.6699L19.9923 62.7951L20.6793 62.809C21.0589 62.8182 21.4204 62.809 21.4855 62.7951C21.5868 62.7719 21.6048 62.7487 21.594 62.6467C21.5831 62.5494 21.547 62.517 21.3481 62.4289L21.1131 62.3223L21.1023 61.4463C21.0878 60.2365 21.1963 58.5911 21.3011 58.4567C21.3192 58.4335 21.4928 58.9248 21.688 59.5413C21.8868 60.1578 22.2014 61.1265 22.3894 61.6919C22.7148 62.6792 22.7365 62.7255 22.8305 62.7255C23.0004 62.7255 23.1089 62.5679 23.1956 62.2018C23.2788 61.8356 24.0887 59.4532 24.3779 58.7163L24.5587 58.2528L24.5804 58.5077C24.5912 58.6467 24.6274 59.4486 24.6563 60.2922C24.6852 61.1311 24.7141 61.9144 24.7214 62.0303L24.7286 62.2389L24.4394 62.4243C24.2839 62.5262 24.1465 62.6328 24.1429 62.656C24.1357 62.6838 24.1537 62.7441 24.1791 62.7904C24.2224 62.8646 24.2514 62.8692 24.5298 62.8182C24.7322 62.7812 25.0395 62.7765 25.4408 62.7951C25.7699 62.8136 26.0555 62.8182 26.0736 62.8043C26.1206 62.7672 26.088 62.5123 26.0374 62.5031C25.8819 62.4845 25.7192 62.364 25.6722 62.2389C25.5602 61.9376 25.4481 60.3617 25.4119 58.6236L25.3866 57.5112L25.5312 57.4046C25.6144 57.3489 25.712 57.3026 25.7518 57.3026C25.8277 57.3026 25.9398 57.145 25.9398 57.043C25.9398 56.8994 25.3685 56.8206 24.7467 56.8808Z" fill="#16253B"/>
<path d="M37.0611 56.9141C37.0285 56.9512 37.0032 57.016 37.0032 57.0578C37.0032 57.1458 36.0596 60.1586 35.7667 61.0114C35.398 62.0821 35.2316 62.3926 34.9966 62.4436C34.8629 62.4714 34.852 62.4853 34.8412 62.6383L34.8303 62.8005H35.6474L36.4609 62.7959V62.6476C36.4609 62.541 36.4428 62.4946 36.4067 62.4946C36.2946 62.4946 36.1464 62.3556 36.0994 62.2165C36.0379 62.0218 36.074 61.614 36.1934 61.2014C36.3452 60.6731 36.3271 60.6823 37.2527 60.6962L38.0336 60.7101L38.1566 61.1273C38.3156 61.6788 38.3916 62.1423 38.3409 62.2629C38.2939 62.3741 38.1204 62.4946 38.0047 62.4946C37.9324 62.4946 37.9107 62.5224 37.8999 62.6337C37.889 62.7217 37.8999 62.7773 37.936 62.7959C38.0192 62.833 39.8016 62.8191 39.8522 62.7773C39.8847 62.7542 39.892 62.6985 39.8775 62.6197C39.8594 62.527 39.8197 62.4853 39.7184 62.4483C39.4437 62.3556 39.3424 62.1053 38.8218 60.3162C38.547 59.3706 38.3879 58.7727 38.1204 57.6835C38.0589 57.4239 37.9577 57.1273 37.9035 57.0253L37.7986 56.8399H37.4588C37.1948 56.8399 37.1045 56.8585 37.0611 56.9141ZM37.4696 58.5734C37.6215 59.0647 37.8348 59.9917 37.8348 60.1447C37.8348 60.2327 37.8131 60.2327 37.2201 60.2142C36.8839 60.2049 36.5947 60.1817 36.5838 60.1632C36.5513 60.1261 36.7791 59.3243 37.043 58.5131C37.2635 57.8457 37.2491 57.8411 37.4696 58.5734Z" fill="#16253B"/>
<path d="M57.9969 57.0572C57.9462 57.1823 57.7908 57.6458 57.6534 58.0908C57.2448 59.3978 56.529 61.567 56.4241 61.8173C56.2759 62.1742 56.0554 62.4477 55.9216 62.4477C55.8059 62.4477 55.7661 62.5126 55.7661 62.698V62.7999L56.6085 62.7953H57.4473L57.4582 62.6655C57.469 62.5357 57.4618 62.5265 57.2738 62.4708C57.2159 62.4569 57.1291 62.392 57.0821 62.3318C56.9267 62.1325 56.9809 61.6458 57.2412 60.9645L57.3388 60.7095L57.6281 60.6725C58.0294 60.6215 58.7995 60.6586 58.9188 60.7327C58.9911 60.7744 59.0417 60.8671 59.0923 61.0479C59.2153 61.4604 59.3093 61.9471 59.3093 62.1464C59.3093 62.3364 59.3093 62.3364 59.1068 62.4199C58.955 62.4801 58.9007 62.5311 58.8718 62.6192C58.8465 62.7119 58.8501 62.7489 58.8826 62.7814C58.9477 62.8324 60.7229 62.8277 60.788 62.7767C60.8531 62.7211 60.8097 62.4986 60.7265 62.4662C60.4915 62.3735 60.4228 62.2901 60.2674 61.8729C60.0504 61.2936 59.3093 58.7072 58.8971 57.0803L58.832 56.8393H58.4633H58.0909L57.9969 57.0572ZM58.3982 58.4477C58.5428 58.9436 58.8031 60.0236 58.8031 60.1348C58.8031 60.2182 58.767 60.2229 58.1704 60.2229C57.8233 60.2229 57.5377 60.2043 57.5377 60.1812C57.5377 60.0606 58.0186 58.3828 58.1379 58.0769C58.2138 57.8961 58.2536 57.9517 58.3982 58.4477Z" fill="#16253B"/>
<path d="M4.27454 56.9474C4.16247 57.0493 4.22754 57.244 4.40832 57.346C4.48786 57.3923 4.59271 57.4804 4.63609 57.5406C4.81686 57.7956 5.12779 58.7596 5.80389 61.1745C6.0172 61.9392 6.21967 62.6438 6.24859 62.7411L6.30644 62.9126H6.59567H6.8813L7.20669 61.9253C7.38746 61.3877 7.5827 60.7851 7.64416 60.5858C7.86832 59.8581 8.41787 58.2405 8.55526 57.9022C8.72519 57.485 8.8698 57.2904 9.01081 57.295C9.13373 57.295 9.16627 57.2394 9.16627 57.0308V56.8778L9.0325 56.9149C8.95658 56.9381 8.59864 56.9566 8.2371 56.9566C7.84301 56.9566 7.56462 56.9752 7.54293 57.003C7.467 57.0957 7.58631 57.2718 7.77432 57.346L7.95509 57.4201L7.94424 57.6241C7.9334 57.8744 7.70562 58.7875 7.44531 59.6218C7.05122 60.8871 6.86683 61.4479 6.82706 61.4618C6.78006 61.485 6.57398 60.8222 6.23051 59.5569C5.88343 58.2683 5.72073 57.5314 5.76773 57.4711C5.78943 57.4433 5.88343 57.3877 5.97743 57.346C6.17628 57.2625 6.27028 57.0957 6.18351 56.9798C6.14013 56.9288 6.0642 56.9196 5.84727 56.9335C5.40257 56.9659 4.86748 56.9613 4.59271 56.9196C4.40109 56.8917 4.32155 56.901 4.27454 56.9474Z" fill="#16253B"/>
<path d="M9.87915 56.9696C9.79961 56.9882 9.79961 56.9974 9.86831 57.1643C9.91169 57.2709 9.94785 57.3033 10.031 57.3033C10.1973 57.3033 10.313 57.4702 10.3672 57.79C10.4323 58.1933 10.4287 61.79 10.3636 62.0681C10.3022 62.3323 10.219 62.4296 10.0202 62.4667C9.92977 62.4853 9.82854 62.5409 9.79238 62.5919C9.73092 62.6799 9.73092 62.6846 9.80323 62.7819C9.87554 62.87 9.89362 62.8746 10.1865 62.819C10.3745 62.7865 10.7649 62.768 11.1771 62.7819L11.8568 62.7958L11.8677 62.6568C11.8785 62.5177 11.8713 62.5131 11.6616 62.4528C11.376 62.374 11.3434 62.3045 11.2964 61.6741C11.2205 60.6405 11.2675 57.7298 11.3651 57.4934C11.4049 57.4053 11.5459 57.3173 11.6941 57.2941C11.7809 57.2802 11.9074 57.0531 11.8604 56.9928C11.8387 56.9604 9.984 56.9418 9.87915 56.9696Z" fill="#16253B"/>
<path d="M12.7311 56.9697C12.6841 56.9836 12.6732 57.016 12.6877 57.0855C12.6986 57.1411 12.7094 57.2014 12.7094 57.2199C12.7094 57.2431 12.7528 57.257 12.8106 57.257C12.9516 57.2617 13.1505 57.4007 13.2047 57.5351C13.2409 57.6232 13.2517 58.096 13.2517 59.4586C13.2517 61.3775 13.2156 62.2999 13.136 62.3648C13.1107 62.3833 13.0276 62.4158 12.948 62.4297C12.7853 62.4668 12.6226 62.629 12.6516 62.7263C12.6696 62.7866 12.8287 62.7958 13.7217 62.8005C14.6798 62.8051 14.7702 62.8005 14.7702 62.7309C14.7702 62.5826 14.6798 62.4946 14.4629 62.425C14.3472 62.3833 14.246 62.3462 14.2387 62.337C14.1339 62.2072 14.0941 58.6707 14.1845 57.9013C14.2134 57.6834 14.246 57.4795 14.2641 57.4471C14.2785 57.41 14.3725 57.359 14.4665 57.3265C14.5931 57.2895 14.6581 57.2338 14.6979 57.1504C14.7268 57.0855 14.7377 57.016 14.7232 56.9975C14.6979 56.965 12.8576 56.9418 12.7311 56.9697Z" fill="#16253B"/>
<path d="M26.9431 56.9699C26.8636 56.9884 26.8636 57.1321 26.9467 57.2201C26.9793 57.2572 27.0733 57.3036 27.1528 57.3175C27.4493 57.3777 27.4746 57.54 27.471 59.343C27.4673 60.7705 27.4167 62.073 27.3516 62.2815C27.33 62.3603 27.2721 62.3974 27.1203 62.4438C26.9359 62.4948 26.8093 62.5875 26.8093 62.6755C26.8093 62.6941 26.831 62.745 26.8563 62.7914C26.9033 62.8702 26.9286 62.8748 27.2179 62.8192C27.4095 62.7868 27.8 62.7682 28.2266 62.7775C28.8557 62.796 28.9244 62.7868 28.9352 62.7172C28.9533 62.6014 28.8123 62.4484 28.6858 62.4484C28.5231 62.4484 28.4507 62.3835 28.3821 62.161C28.3242 61.9803 28.317 61.7902 28.3242 60.2468C28.3278 58.5133 28.3676 57.6558 28.4471 57.4426C28.4869 57.3453 28.5158 57.3267 28.646 57.336C28.7906 57.3453 28.8051 57.3314 28.8593 57.1877C28.8918 57.0996 28.9099 57.0116 28.8955 56.9977C28.8738 56.9699 27.0516 56.942 26.9431 56.9699Z" fill="#16253B"/>
<path d="M29.7735 56.998C29.7229 57.0629 29.8133 57.2576 29.9073 57.2807C29.9543 57.2946 30.0338 57.3132 30.0844 57.3271C30.1459 57.3456 30.1965 57.4105 30.2363 57.5264C30.2905 57.6793 30.2977 57.8926 30.2941 59.3897C30.2869 61.2668 30.2435 62.0826 30.1423 62.2587C30.1097 62.319 29.994 62.4117 29.8892 62.4673C29.7265 62.5507 29.7012 62.5832 29.7012 62.6944V62.8288L30.399 62.7964C30.869 62.7732 31.1654 62.7825 31.3173 62.8149C31.7295 62.9122 31.8162 62.7176 31.4728 62.4719C31.1727 62.2587 31.1329 62.1289 31.1184 61.2576C31.104 60.5577 31.104 60.553 31.1944 60.4372C31.4981 60.0478 31.7909 60.3074 32.373 61.4893C32.7599 62.2773 33.031 62.6805 33.2552 62.7964C33.4576 62.903 34.0542 62.9447 34.2747 62.8659C34.5097 62.7825 34.4917 62.6805 34.2133 62.5044C33.9096 62.3143 33.7541 62.1104 33.3709 61.4105C32.7743 60.3306 32.6622 60.1127 32.6731 60.0386C32.6803 60.0015 32.7635 59.9041 32.8611 59.8207C33.3022 59.4499 33.5372 58.9725 33.5372 58.4534C33.5372 57.7999 33.2371 57.341 32.6297 57.0675C32.4019 56.9609 32.3585 56.9563 31.1004 56.9563C30.3881 56.9563 29.7916 56.9748 29.7735 56.998ZM32.1235 57.5866C32.3405 57.7072 32.5755 58.027 32.6297 58.2726C32.7129 58.6573 32.6478 59.0884 32.4525 59.4545C32.2537 59.8207 32.0151 59.9273 31.4691 59.8763L31.1112 59.8439V58.7176C31.1112 57.5403 31.1112 57.531 31.2739 57.4754C31.433 57.4151 31.9391 57.4847 32.1235 57.5866Z" fill="#16253B"/>
<path d="M45.7655 56.9652C45.7402 56.9792 45.7185 57.0255 45.7185 57.0719C45.7185 57.1785 45.7764 57.2341 45.968 57.3082C46.2355 57.4102 46.2391 57.4426 46.2427 59.2735C46.25 60.9421 46.2681 61.1877 46.4416 61.7532C46.7019 62.6014 47.2623 63 48.1951 63C49.3521 63 49.9992 62.3604 50.1872 61.0209C50.2415 60.6408 50.2451 60.3905 50.227 59.2966C50.2162 58.5736 50.2198 57.9201 50.2415 57.7903C50.2776 57.5214 50.3861 57.3778 50.5958 57.3036C50.7404 57.2572 50.8163 57.0997 50.744 57.007C50.7042 56.956 49.2436 56.9374 49.1857 56.9838C49.1026 57.0487 49.1785 57.1924 49.3521 57.3036C49.5979 57.4612 49.6811 57.6837 49.7353 58.3233C49.7751 58.8192 49.757 59.9224 49.6955 60.7937C49.6413 61.4983 49.4533 61.9061 49.052 62.1657C48.6326 62.4392 47.9529 62.3418 47.6022 61.9571C47.2695 61.591 47.1792 61.2016 47.1249 59.9224C47.0815 58.9444 47.1213 57.7717 47.2081 57.5678C47.2623 57.4334 47.3672 57.336 47.5262 57.2758C47.6239 57.2387 47.6564 57.197 47.6636 57.1043C47.6709 57.0348 47.6636 56.9792 47.6456 56.9745C47.5407 56.9606 45.8017 56.9513 45.7655 56.9652Z" fill="#16253B"/>
<path d="M51.6773 56.9824C51.6556 56.9963 51.6484 57.0519 51.6592 57.1029C51.6809 57.1956 51.7605 57.2605 51.9449 57.3486C52.1365 57.4366 52.1654 57.6128 52.1799 58.9013C52.1943 60.0369 52.1365 61.9789 52.0823 62.2431C52.0606 62.359 52.028 62.3822 51.8617 62.4332C51.6629 62.4888 51.5616 62.5954 51.5797 62.7252C51.5905 62.7854 51.8111 62.7947 53.3513 62.8086L55.112 62.8179L55.1662 62.6927C55.2494 62.4842 55.4049 61.7008 55.4049 61.4876C55.4049 61.3347 55.3904 61.2883 55.3326 61.2652C55.2386 61.2281 55.1662 61.3022 55.0722 61.5386C54.924 61.9187 54.7179 62.1134 54.3636 62.2107C54.1141 62.2756 53.3983 62.2709 53.2356 62.2014C53.0114 62.1041 53.0006 61.9975 53.0114 60.2223C53.0223 58.4563 53.0584 57.7426 53.1524 57.4923C53.2067 57.3532 53.2392 57.3208 53.3621 57.3022C53.467 57.2837 53.5176 57.2513 53.5501 57.1632C53.5791 57.0844 53.5827 57.0334 53.5574 57.001C53.5176 56.95 51.7424 56.9314 51.6773 56.9824Z" fill="#16253B"/>
<path d="M17.1154 59.2629C16.6744 59.6383 16.8877 60.4541 17.4264 60.4541C17.5782 60.4541 17.806 60.3151 17.8675 60.1806C18.0085 59.884 17.9217 59.3741 17.7012 59.2305C17.5385 59.1192 17.2637 59.1331 17.1154 59.2629Z" fill="#16253B"/>
</svg>
