<svg width="24" height="20" viewBox="0 0 24 20" fill="none" xmlns="http://www.w3.org/2000/svg">
<path d="M21.4555 1C22.1156 1 22.6135 1.579 22.3472 2.65593L19.1164 17.8835C18.8906 18.9662 18.2363 19.2268 17.3331 18.723L9.62664 13.0315C9.59675 13.0101 9.57241 12.9818 9.55561 12.9491C9.53881 12.9164 9.53005 12.8801 9.53005 12.8433C9.53005 12.8066 9.53881 12.7703 9.55561 12.7376C9.57241 12.7049 9.59675 12.6766 9.62664 12.6552L18.5258 4.61872C18.9311 4.25974 18.4389 4.08604 17.9063 4.41028L6.73745 11.4566C6.70358 11.4787 6.66512 11.4928 6.625 11.4978C6.58487 11.5029 6.54413 11.4987 6.50586 11.4856L1.76389 9.986C0.710117 9.67913 0.710117 8.95539 2.00128 8.44008L20.9749 1.12159C21.1254 1.0494 21.2888 1.00806 21.4555 1Z" stroke="white" stroke-width="1.33333" stroke-linecap="round" stroke-linejoin="round"/>
</svg>
