<svg width="25" height="25" viewBox="0 0 25 25" fill="none" xmlns="http://www.w3.org/2000/svg">
<path fill-rule="evenodd" clip-rule="evenodd" d="M25 12.5C25 19.4036 19.4036 25 12.5 25C5.59644 25 0 19.4036 0 12.5C0 5.59644 5.59644 0 12.5 0C19.4036 0 25 5.59644 25 12.5ZM8.37059 11.355C7.11841 11.9017 5.83181 12.4634 4.65534 13.1114L4.65526 13.1115C4.04094 13.5613 4.85749 13.8794 5.62347 14.1779C5.74524 14.2253 5.86574 14.2722 5.97901 14.3191C6.07326 14.3481 6.16911 14.3786 6.26624 14.4096C7.11815 14.681 8.06809 14.9837 8.89515 14.5284C10.2538 13.7479 11.5359 12.8456 12.8171 11.944C13.2369 11.6486 13.6565 11.3533 14.0787 11.0623C14.0985 11.0497 14.1208 11.0352 14.1452 11.0194C14.5049 10.7863 15.3137 10.2619 15.0145 10.9844C14.307 11.7582 13.5492 12.4431 12.7872 13.1318C12.2737 13.5959 11.7583 14.0617 11.2552 14.5575C10.817 14.9136 10.3619 15.6296 10.8526 16.1282C11.9828 16.9194 13.1306 17.6914 14.2778 18.4629C14.6511 18.714 15.0243 18.965 15.3968 19.2166C16.0281 19.7207 17.0149 19.3129 17.1537 18.5252C17.2154 18.1629 17.2774 17.8005 17.3394 17.4381C17.6818 15.4357 18.0244 13.4326 18.3271 11.4237C18.3682 11.1086 18.4149 10.7935 18.4615 10.4782C18.5746 9.71406 18.6878 8.949 18.7232 8.18077C18.632 7.41413 17.7025 7.5827 17.1851 7.75508C14.5262 8.76685 11.8938 9.85362 9.2718 10.9596C8.97478 11.0912 8.67369 11.2226 8.37059 11.355Z" fill="white"/>
</svg>
