<svg width="25" height="25" viewBox="0 0 25 25" fill="none" xmlns="http://www.w3.org/2000/svg">
<path fill-rule="evenodd" clip-rule="evenodd" d="M12.5 0C19.4036 0 25 5.59644 25 12.5C25 19.4036 19.4036 25 12.5 25C5.59644 25 0 19.4036 0 12.5C0 5.59644 5.59644 0 12.5 0ZM15.8303 10.9158C15.7695 10.4219 15.6177 10.0341 15.3481 9.69058C14.998 9.24825 14.5506 8.98338 13.8883 8.82625C13.4566 8.72153 13.2822 8.73355 13.1261 8.87615C12.9807 9.00975 12.9523 9.27758 13.0635 9.45102C13.1416 9.57691 13.2318 9.62201 13.4825 9.67123C13.8164 9.73266 14.0472 9.8124 14.2571 9.93242C14.7026 10.1897 14.9101 10.5922 14.9323 11.244C14.9427 11.55 14.9691 11.6441 15.076 11.7526C15.2741 11.951 15.6267 11.9124 15.7762 11.675C15.8311 11.5855 15.8395 11.5466 15.8453 11.3388C15.8491 11.2101 15.8436 11.0187 15.8303 10.9158ZM15.8362 7.8855C16.8955 8.74207 17.4873 9.95953 17.5753 11.4727C17.6123 12.0687 17.5632 12.2629 17.3529 12.3734C17.1632 12.4759 16.9482 12.4422 16.8007 12.2879C16.703 12.1876 16.6655 12.0504 16.6669 11.8074C16.6712 11.1357 16.5164 10.3855 16.2648 9.86497C15.9736 9.25912 15.5234 8.74355 14.9571 8.36661C14.461 8.03554 13.8045 7.81192 13.168 7.75623C12.7551 7.72011 12.6077 7.65018 12.5284 7.45225C12.4793 7.33385 12.4923 7.12916 12.5499 7.03748C12.6043 6.95294 12.7264 6.85945 12.8128 6.83474C12.9042 6.80805 13.4376 6.85471 13.7272 6.91227C14.518 7.07323 15.2394 7.40419 15.8362 7.8855ZM19.5064 17.3002C19.4768 17.2137 19.4077 17.0803 19.3584 17.0037C19.0475 16.5343 17.3774 15.2272 16.5435 14.7997C16.0674 14.5552 15.7146 14.4736 15.4531 14.5502C15.1718 14.6293 15.0238 14.7602 14.5526 15.3458C14.3627 15.5805 14.1678 15.8004 14.1159 15.835C13.9876 15.924 13.736 15.9956 13.5584 15.9956C13.1464 15.9931 12.3989 15.7263 11.8241 15.3754C11.3775 15.1037 10.8052 14.6169 10.3661 14.1351C9.84797 13.5693 9.49523 13.0702 9.21642 12.5069C8.85626 11.783 8.76498 11.3407 8.91545 11.017C8.95246 10.9355 9.00181 10.849 9.02398 10.8218C9.0462 10.7971 9.27811 10.6069 9.53466 10.3993C10.038 9.99908 10.1194 9.90766 10.2131 9.63341C10.3315 9.28501 10.2995 8.92922 10.1169 8.57098C9.97626 8.29918 9.60868 7.70621 9.34225 7.32325C8.98947 6.81923 8.1112 5.74198 7.93602 5.59616C7.62025 5.33923 7.21569 5.29473 6.76912 5.46772C6.29796 5.65056 5.41474 6.36213 5.03727 6.85876C4.69682 7.30843 4.56611 7.62714 4.54636 8.04717C4.5291 8.39306 4.55869 8.53637 4.74126 8.97865C6.16966 12.4476 8.30114 15.2173 11.2295 17.4163C12.7591 18.5652 14.3454 19.4399 15.9909 20.0378C16.9505 20.3862 17.3675 20.4034 17.8584 20.1169C18.0656 19.9933 18.5788 19.467 18.8649 19.0841C19.3386 18.4466 19.5138 18.1526 19.5631 17.9179C19.5977 17.7573 19.5705 17.4781 19.5064 17.3002ZM18.8756 9.47945C19.1761 10.2622 19.3202 10.9643 19.3518 11.8203C19.3568 11.9894 19.3545 12.2992 19.3436 12.509C19.3207 12.9113 19.2989 12.9913 19.1831 13.0977C18.9969 13.2724 18.6341 13.2307 18.4965 13.0202C18.4246 12.9073 18.4145 12.8246 18.4284 12.3546C18.4683 10.9642 18.1871 9.87559 17.5097 8.78706C16.7003 7.48109 15.4895 6.60132 13.915 6.17092C13.5135 6.06137 13.1751 5.9946 12.6489 5.92375C12.3061 5.87888 12.231 5.85991 12.1464 5.80784C11.8908 5.64414 11.8874 5.22962 12.1422 5.06343C12.2736 4.9757 12.3706 4.97178 12.7992 5.02666C14.0558 5.1837 15.1772 5.55712 16.0986 6.12138C16.759 6.52638 17.1754 6.8902 17.7116 7.5274C18.2786 8.207 18.5789 8.70945 18.8756 9.47945Z" fill="white"/>
</svg>
