<svg width="22" height="20" viewBox="0 0 22 20" fill="none" xmlns="http://www.w3.org/2000/svg">
<path d="M2.1707 1.33325H6.46084C6.64826 1.3442 6.82514 1.42358 6.95789 1.55633C7.09064 1.68909 7.17003 1.86596 7.18098 2.05338C7.15678 3.03555 7.32061 4.01327 7.66362 4.93391C7.81442 5.24164 7.84861 5.59358 7.75987 5.92458C7.67114 6.25558 7.46548 6.54321 7.18098 6.73424L5.64878 8.26644C6.3183 9.57179 7.1925 10.7615 8.23819 11.7905C9.2771 12.83 10.4679 13.7057 11.7699 14.3876L13.3021 12.8554C13.4931 12.5709 13.7808 12.3652 14.1118 12.2765C14.4428 12.1877 14.7947 12.2219 15.1024 12.3727C16.0231 12.7157 17.0008 12.8796 17.9829 12.8554C18.1704 12.8663 18.3472 12.9457 18.48 13.0784C18.6128 13.2112 18.6921 13.3881 18.7031 13.5755V17.8963C18.6921 18.0837 18.6128 18.2606 18.48 18.3933C18.3472 18.5261 18.1704 18.6055 17.9829 18.6164C13.6426 18.4442 9.5268 16.6419 6.45673 13.569C3.38666 10.496 1.5881 6.37855 1.41992 2.03806C1.43444 1.85337 1.5154 1.68019 1.64781 1.5506C1.78021 1.42101 1.95509 1.3438 2.14005 1.33325H2.1707Z" stroke="white" stroke-width="1.33333" stroke-linecap="round" stroke-linejoin="round"/>
<path d="M12.1596 3.70431C15.9177 3.51102 17.943 5.1917 17.5287 9.18609" stroke="white" stroke-linecap="round"/>
<path d="M13.5511 1.43026C18.1701 1.19269 20.6594 3.25839 20.1501 8.16787" stroke="white" stroke-linecap="round"/>
</svg>
