<svg width="25" height="25" viewBox="0 0 25 25" fill="none" xmlns="http://www.w3.org/2000/svg">
<path fill-rule="evenodd" clip-rule="evenodd" d="M0 12.5C0 19.4036 5.59644 25 12.5 25C19.4036 25 25 19.4036 25 12.5C25 5.59644 19.4036 0 12.5 0C5.59644 0 0 5.59644 0 12.5ZM20.3449 12.0216C20.3432 16.1189 17.0101 19.4528 12.912 19.4544H12.9089C11.665 19.454 10.4426 19.1419 9.35695 18.5497L5.41667 19.5833L6.47115 15.7317C5.82069 14.6044 5.47843 13.3258 5.47898 12.0158C5.48061 7.91755 8.81501 4.58333 12.9119 4.58333C14.9003 4.58419 16.7666 5.35826 18.1699 6.76324C19.5732 8.16814 20.3457 10.0356 20.3449 12.0216Z" fill="white"/>
<path fill-rule="evenodd" clip-rule="evenodd" d="M7.20123 17.8176L9.53945 17.2042L9.76505 17.3381C10.7136 17.901 11.8009 18.1988 12.9095 18.1992H12.912C16.317 18.1992 19.0884 15.4278 19.0898 12.0213C19.0904 10.3705 18.4485 8.81837 17.2821 7.65061C16.1157 6.48285 14.5645 5.83944 12.9144 5.83887C9.50667 5.83887 6.73524 8.61005 6.73389 12.0163C6.73341 13.1836 7.06003 14.3205 7.67845 15.3041L7.82534 15.5378L7.20123 17.8176ZM16.4022 13.622C16.5318 13.6846 16.6192 13.7269 16.6566 13.7892C16.703 13.8667 16.703 14.2385 16.5483 14.6724C16.3935 15.1062 15.6515 15.5022 15.2947 15.5555C14.9747 15.6033 14.5698 15.6233 14.1249 15.4819C13.8552 15.3963 13.5092 15.282 13.0661 15.0907C11.325 14.3389 10.1484 12.6513 9.92601 12.3324C9.91043 12.3101 9.89954 12.2944 9.89346 12.2863L9.89196 12.2843C9.79367 12.1532 9.1351 11.2745 9.1351 10.3651C9.1351 9.5096 9.55533 9.06119 9.74877 8.85479C9.76202 8.84065 9.77421 8.82765 9.78512 8.81573C9.95535 8.62979 10.1566 8.5833 10.2804 8.5833C10.4042 8.5833 10.5281 8.58445 10.6363 8.58988C10.6497 8.59055 10.6636 8.59047 10.6779 8.59039C10.7862 8.58975 10.9211 8.58896 11.0542 8.90869C11.1054 9.03174 11.1803 9.21416 11.2594 9.40655C11.4192 9.79562 11.5958 10.2255 11.6268 10.2877C11.6733 10.3807 11.7042 10.4891 11.6423 10.6131C11.633 10.6317 11.6244 10.6492 11.6162 10.666C11.5697 10.7609 11.5355 10.8308 11.4566 10.9229C11.4256 10.9591 11.3935 10.9982 11.3614 11.0372C11.2975 11.1151 11.2336 11.1929 11.178 11.2483C11.085 11.3409 10.9882 11.4414 11.0966 11.6273C11.2049 11.8133 11.5776 12.4214 12.1298 12.9139C12.7233 13.4433 13.2391 13.667 13.5006 13.7804C13.5516 13.8026 13.593 13.8205 13.6233 13.8357C13.809 13.9287 13.9173 13.9131 14.0257 13.7892C14.134 13.6653 14.4899 13.2469 14.6137 13.061C14.7375 12.8751 14.8614 12.9061 15.0316 12.968C15.2018 13.0301 16.1149 13.4793 16.3007 13.5723C16.3369 13.5904 16.3708 13.6068 16.4022 13.622Z" fill="white"/>
</svg>
