<svg width="22" height="22" viewBox="0 0 22 22" fill="none" xmlns="http://www.w3.org/2000/svg">
<path d="M11.005 1C9.26704 1.00187 7.55949 1.456 6.05022 2.31776C4.54096 3.17952 3.28195 4.41922 2.39698 5.91499C1.512 7.41076 1.03154 9.11109 1.00282 10.8488C0.974098 12.5865 1.39811 14.3018 2.23317 15.826L1 21.01L6.18399 19.7768C7.52105 20.5103 9.00809 20.9284 10.5315 20.9992C12.0549 21.07 13.5743 20.7916 14.9736 20.1853C16.3729 19.579 17.6151 18.6608 18.6053 17.501C19.5955 16.3411 20.3074 14.9702 20.6866 13.4931C21.0659 12.016 21.1025 10.4717 20.7935 8.9783C20.4846 7.48489 19.8384 6.08186 18.9042 4.87642C17.9701 3.67099 16.7727 2.69506 15.4036 2.02321C14.0346 1.35137 12.53 1.00138 11.005 1ZM6.0025 5.54646H8.72944C8.85286 5.54646 8.97122 5.59549 9.05849 5.68276C9.14576 5.77003 9.19479 5.88839 9.19479 6.01181C9.17953 6.6324 9.2838 7.25013 9.50192 7.83132C9.59586 8.02588 9.61651 8.24777 9.5601 8.45632C9.50369 8.66487 9.37399 8.8461 9.19479 8.96677L8.24083 9.89747C8.66381 10.7235 9.21688 11.4761 9.87885 12.1265C10.524 12.7992 11.2735 13.3634 12.0986 13.7971L13.0293 12.8431C13.4946 12.3778 13.7087 12.3778 14.1647 12.536C14.7459 12.7541 15.3636 12.8584 15.9842 12.8431C16.1058 12.8488 16.2209 12.8996 16.307 12.9857C16.3931 13.0718 16.4439 13.1869 16.4496 13.3085V16.0354C16.4439 16.157 16.3931 16.2721 16.307 16.3582C16.2209 16.4443 16.1058 16.4951 15.9842 16.5008C13.2469 16.3815 10.6521 15.2467 8.70618 13.3178C6.77422 11.3739 5.63889 8.77792 5.52319 6.03973C5.5243 5.91164 5.57473 5.78891 5.66399 5.69704C5.75326 5.60517 5.8745 5.55124 6.0025 5.54646Z" stroke="white" stroke-width="1.33333" stroke-linecap="round" stroke-linejoin="round"/>
</svg>
