<svg width="40" height="30" viewBox="0 0 40 30" fill="none" xmlns="http://www.w3.org/2000/svg">
<path d="M19.9999 0.977783C19.9999 1.47778 20 1.47778 20 1.47778L20.0004 1.47778L20.0021 1.47778L20.0087 1.47779L20.0354 1.47781L20.1401 1.47799C20.2321 1.47819 20.3675 1.4786 20.5412 1.47941C20.8884 1.48105 21.3883 1.48431 21.9978 1.49084C23.2172 1.50391 24.875 1.53004 26.6294 1.58227C28.3846 1.63452 30.2325 1.71279 31.8335 1.82983C33.4486 1.94791 34.77 2.10289 35.4975 2.2983L35.4977 2.29836C37.0469 2.7137 38.2657 3.934 38.6805 5.48633C39.082 6.99134 39.2898 9.35373 39.3949 11.3757C39.447 12.3792 39.4733 13.2863 39.4866 13.9426C39.4932 14.2706 39.4965 14.5356 39.4982 14.7184C39.4991 14.8098 39.4995 14.8805 39.4998 14.9283L39.5 14.9824L39.5 14.996L39.5 14.9993V15V15V15.0001V15.0002V15.0009L39.5 15.0042L39.5 15.0177L39.4998 15.0718C39.4996 15.1196 39.4992 15.1904 39.4984 15.2818C39.4968 15.4645 39.4935 15.7296 39.487 16.0576C39.474 16.7138 39.4481 17.6208 39.3961 18.6244C39.2915 20.6464 39.0836 23.0087 38.6806 24.5134L38.6805 24.5136C38.2657 26.066 37.0469 27.2862 35.4977 27.7015L35.4974 27.7016C34.77 27.897 33.4486 28.052 31.8335 28.1701C30.2325 28.2871 28.3846 28.3654 26.6294 28.4176C24.875 28.4699 23.2172 28.496 21.9978 28.5091C21.3883 28.5156 20.8884 28.5189 20.5412 28.5205C20.3675 28.5213 20.2321 28.5217 20.1401 28.5219L20.0354 28.5221L20.0087 28.5221L20.0021 28.5221H20.0004H20C20 28.5221 19.9999 28.5221 19.9999 29.0221C19.9999 28.5221 19.9999 28.5221 19.9998 28.5221H19.9994H19.9978L19.9911 28.5221L19.9645 28.5221L19.8598 28.5219C19.7678 28.5217 19.6323 28.5213 19.4587 28.5205C19.1114 28.5189 18.6116 28.5156 18.002 28.5091C16.7827 28.496 15.1249 28.4699 13.3705 28.4176C11.6153 28.3654 9.76742 28.2871 8.16643 28.1701C6.55134 28.052 5.2299 27.897 4.50245 27.7016L4.50218 27.7015C2.95303 27.2862 1.73431 26.066 1.3194 24.5136L1.31933 24.5134C0.916369 23.0087 0.70851 20.6464 0.603876 18.6244C0.551947 17.6208 0.525963 16.7138 0.51297 16.0576C0.506476 15.7296 0.503233 15.4645 0.501614 15.2818C0.500804 15.1904 0.500401 15.1196 0.5002 15.0718L0.500024 15.0177L0.500003 15.0042L0.5 15.0009L0.5 15.0001L0.5 15L0 15L0.5 14.9999L0.5 14.9998L0.5 14.999L0.500003 14.9957L0.500024 14.9822L0.5002 14.9281C0.500401 14.8803 0.500804 14.8095 0.501614 14.7181C0.503233 14.5354 0.506476 14.2703 0.51297 13.9424C0.525963 13.2861 0.551947 12.3791 0.603876 11.3756C0.70851 9.35352 0.916369 6.99128 1.31933 5.48659L1.3194 5.48635C1.73431 3.93398 2.95303 2.7137 4.5022 2.29837L4.50244 2.2983C5.2299 2.10289 6.55134 1.94791 8.16643 1.82983C9.76742 1.71279 11.6153 1.63452 13.3705 1.58227C15.1249 1.53004 16.7827 1.50391 18.002 1.49084C18.6116 1.48431 19.1114 1.48105 19.4587 1.47941C19.6323 1.4786 19.7678 1.47819 19.8598 1.47799L19.9645 1.47781L19.9911 1.47779L19.9978 1.47778L19.9994 1.47778L19.9998 1.47778C19.9999 1.47778 19.9999 1.47778 19.9999 0.977783Z" stroke="black"/>
<path d="M15.9961 21.0083L26.3879 14.9998L15.9961 8.99121V21.0083Z" fill="black"/>
</svg>
